<svg class="marks" width="416" height="136" version="1.1" xmlns="http://www.w3.org/2000/svg" xmlns:xlink="http://www.w3.org/1999/xlink"><g transform="translate(47,12)"><g class="mark-group"><g transform="translate(0,0)"><rect class="background" width="300" height="100" style="fill: none;"></rect><g class="mark-group"><g transform="translate(0,100)"><rect class="background" width="0" height="0" style="pointer-events: none; fill: none;"></rect><g class="mark-rule" style="pointer-events: none;"></g><g class="mark-rule" style="pointer-events: none;"><line transform="translate(36.5,0)" x2="0" y2="0" style="fill: none; stroke: #000; stroke-width: 1; opacity: 1;"></line><line transform="translate(93.5,0)" x2="0" y2="0" style="fill: none; stroke: #000; stroke-width: 1; opacity: 1;"></line><line transform="translate(150.5,0)" x2="0" y2="0" style="fill: none; stroke: #000; stroke-width: 1; opacity: 1;"></line><line transform="translate(207.5,0)" x2="0" y2="0" style="fill: none; stroke: #000; stroke-width: 1; opacity: 1;"></line><line transform="translate(264.5,0)" x2="0" y2="0" style="fill: none; stroke: #000; stroke-width: 1; opacity: 1;"></line></g><g class="mark-rule" style="pointer-events: none;"></g><g class="mark-text"><text text-anchor="middle" transform="translate(36.5,16)" style="font: 9px Karla; fill: #000; opacity: 1;">The Worst</text><text text-anchor="middle" transform="translate(93.5,16)" style="font: 9px Karla; fill: #000; opacity: 1;">Awful</text><text text-anchor="middle" transform="translate(150.5,16)" style="font: 9px Karla; fill: #000; opacity: 1;">Fine</text><text text-anchor="middle" transform="translate(207.5,16)" style="font: 9px Karla; fill: #000; opacity: 1;">Good</text><text text-anchor="middle" transform="translate(264.5,16)" style="font: 9px Karla; fill: #000; opacity: 1;">Amazing</text></g><g class="mark-path" style="pointer-events: none;"><path transform="translate(0.5,0.5)" d="M0,0V0H300V0" style="fill: none; stroke: #000; stroke-width: 1;"></path></g><g class="mark-text"></g></g></g><g class="mark-group"><g transform="translate(0,0)"><rect class="background" width="0" height="0" style="pointer-events: none; fill: none;"></rect><g class="mark-rule" style="pointer-events: none;"></g><g class="mark-rule" style="pointer-events: none;"><line transform="translate(-6,100.5)" x2="6" y2="0" style="fill: none; stroke: #000; stroke-width: 1; opacity: 1;"></line><line transform="translate(-6,88.5)" x2="6" y2="0" style="fill: none; stroke: #000; stroke-width: 1; opacity: 1;"></line><line transform="translate(-6,75.5)" x2="6" y2="0" style="fill: none; stroke: #000; stroke-width: 1; opacity: 1;"></line><line transform="translate(-6,63.5)" x2="6" y2="0" style="fill: none; stroke: #000; stroke-width: 1; opacity: 1;"></line><line transform="translate(-6,50.5)" x2="6" y2="0" style="fill: none; stroke: #000; stroke-width: 1; opacity: 1;"></line><line transform="translate(-6,38.5)" x2="6" y2="0" style="fill: none; stroke: #000; stroke-width: 1; opacity: 1;"></line><line transform="translate(-6,25.5)" x2="6" y2="0" style="fill: none; stroke: #000; stroke-width: 1; opacity: 1;"></line><line transform="translate(-6,13.5)" x2="6" y2="0" style="fill: none; stroke: #000; stroke-width: 1; opacity: 1;"></line><line transform="translate(-6,0.5)" x2="6" y2="0" style="fill: none; stroke: #000; stroke-width: 1; opacity: 1;"></line></g><g class="mark-rule" style="pointer-events: none;"></g><g class="mark-text"><text text-anchor="end" transform="translate(-9,103.5)" style="font: 11px Karla; fill: #000; opacity: 1;">0</text><text text-anchor="end" transform="translate(-9,91.5)" style="font: 11px Karla; fill: #000; opacity: 1;">10</text><text text-anchor="end" transform="translate(-9,78.5)" style="font: 11px Karla; fill: #000; opacity: 1;">20</text><text text-anchor="end" transform="translate(-9,66.5)" style="font: 11px Karla; fill: #000; opacity: 1;">30</text><text text-anchor="end" transform="translate(-9,53.5)" style="font: 11px Karla; fill: #000; opacity: 1;">40</text><text text-anchor="end" transform="translate(-9,41.5)" style="font: 11px Karla; fill: #000; opacity: 1;">50</text><text text-anchor="end" transform="translate(-9,28.5)" style="font: 11px Karla; fill: #000; opacity: 1;">60</text><text text-anchor="end" transform="translate(-9,16.5)" style="font: 11px Karla; fill: #000; opacity: 1;">70</text><text text-anchor="end" transform="translate(-9,3.5)" style="font: 11px Karla; fill: #000; opacity: 1;">80</text></g><g class="mark-path" style="pointer-events: none;"><path transform="translate(0.5,0.5)" d="M-6,0H0V100H-6" style="fill: none; stroke: #000; stroke-width: 1;"></path></g><g class="mark-text"><text text-anchor="middle" transform="translate(-34,50) rotate(-90) translate(0,3)" style="font: bold 11px Karla; fill: #000;">Enjoyment</text></g></g></g><g class="mark-group"><g transform="translate(13,0)"><rect class="background" width="46" height="0" style="fill: none;"></rect><g class="mark-rect bars"><rect transform="translate(23,100)" width="23" height="0" style="fill: #20b2aa;"></rect><rect transform="translate(0,98)" width="23" height="2" style="fill: #8FB220;"></rect></g></g><g transform="translate(70,0)"><rect class="background" width="46" height="0" style="fill: none;"></rect><g class="mark-rect bars"><rect transform="translate(23,88)" width="23" height="12" style="fill: #20b2aa;"></rect><rect transform="translate(0,93)" width="23" height="7" style="fill: #8FB220;"></rect></g></g><g transform="translate(127,0)"><rect class="background" width="46" height="0" style="fill: none;"></rect><g class="mark-rect bars"><rect transform="translate(23,49)" width="23" height="51" style="fill: #20b2aa;"></rect><rect transform="translate(0,61)" width="23" height="39" style="fill: #8FB220;"></rect></g></g><g transform="translate(184,0)"><rect class="background" width="46" height="0" style="fill: none;"></rect><g class="mark-rect bars"><rect transform="translate(23,6)" width="23" height="94" style="fill: #20b2aa;"></rect><rect transform="translate(0,46)" width="23" height="54" style="fill: #8FB220;"></rect></g></g><g transform="translate(241,0)"><rect class="background" width="46" height="0" style="fill: none;"></rect><g class="mark-rect bars"><rect transform="translate(23,78)" width="23" height="22" style="fill: #20b2aa;"></rect><rect transform="translate(0,66)" width="23" height="34" style="fill: #8FB220;"></rect></g></g></g><g class="mark-group"><g transform="translate(320.5,0.5)"><rect class="background" width="43" height="47" style="pointer-events: none; fill: none;"></rect><g class="mark-text" style="pointer-events: none;"><text text-anchor="start" transform="translate(3,13)" style="font: bold 11px sans-serif; fill: #000; opacity: 1;">year</text></g><g class="mark-symbol" style="pointer-events: none;"><path transform="translate(7.5,23)" d="M0,3.989422804014327A3.989422804014327,3.989422804014327 0 1,1 0,-3.989422804014327A3.989422804014327,3.989422804014327 0 1,1 0,3.989422804014327Z" style="fill: #8FB220; stroke: #888; stroke-width: 1; opacity: 1;"></path><path transform="translate(7.5,38)" d="M0,3.989422804014327A3.989422804014327,3.989422804014327 0 1,1 0,-3.989422804014327A3.989422804014327,3.989422804014327 0 1,1 0,3.989422804014327Z" style="fill: #20b2aa; stroke: #888; stroke-width: 1; opacity: 1;"></path></g><g class="mark-text" style="pointer-events: none;"><text text-anchor="start" transform="translate(16,26)" style="font: 10px sans-serif; fill: #000; opacity: 1;">2015</text><text text-anchor="start" transform="translate(16,41)" style="font: 10px sans-serif; fill: #000; opacity: 1;">2016</text></g></g></g></g></g></g></svg>