<svg class="marks" width="540" height="140" version="1.1" xmlns="http://www.w3.org/2000/svg" xmlns:xlink="http://www.w3.org/1999/xlink"><g transform="translate(50,10)"><g class="mark-group"><g transform="translate(0,0)"><rect class="background" width="450" height="100" style="fill: none;"></rect><g class="mark-group"><g transform="translate(0,100)"><rect class="background" width="0" height="0" style="pointer-events: none; fill: none;"></rect><g class="mark-rule" style="pointer-events: none;"></g><g class="mark-rule" style="pointer-events: none;"><line transform="translate(22,0)" x2="0" y2="6" style="fill: none; stroke: #000; stroke-width: 1; opacity: 1;"></line><line transform="translate(59,0)" x2="0" y2="6" style="fill: none; stroke: #000; stroke-width: 1; opacity: 1;"></line><line transform="translate(96,0)" x2="0" y2="6" style="fill: none; stroke: #000; stroke-width: 1; opacity: 1;"></line><line transform="translate(133,0)" x2="0" y2="6" style="fill: none; stroke: #000; stroke-width: 1; opacity: 1;"></line><line transform="translate(170,0)" x2="0" y2="6" style="fill: none; stroke: #000; stroke-width: 1; opacity: 1;"></line><line transform="translate(207,0)" x2="0" y2="6" style="fill: none; stroke: #000; stroke-width: 1; opacity: 1;"></line><line transform="translate(244,0)" x2="0" y2="6" style="fill: none; stroke: #000; stroke-width: 1; opacity: 1;"></line><line transform="translate(281,0)" x2="0" y2="6" style="fill: none; stroke: #000; stroke-width: 1; opacity: 1;"></line><line transform="translate(318,0)" x2="0" y2="6" style="fill: none; stroke: #000; stroke-width: 1; opacity: 1;"></line><line transform="translate(355,0)" x2="0" y2="6" style="fill: none; stroke: #000; stroke-width: 1; opacity: 1;"></line><line transform="translate(392,0)" x2="0" y2="6" style="fill: none; stroke: #000; stroke-width: 1; opacity: 1;"></line><line transform="translate(429,0)" x2="0" y2="6" style="fill: none; stroke: #000; stroke-width: 1; opacity: 1;"></line></g><g class="mark-rule" style="pointer-events: none;"></g><g class="mark-text"><text text-anchor="middle" transform="translate(22,18)" style="font: 10px Karla; fill: #000; opacity: 1;">Jan</text><text text-anchor="middle" transform="translate(59,18)" style="font: 10px Karla; fill: #000; opacity: 1;">Feb</text><text text-anchor="middle" transform="translate(96,18)" style="font: 10px Karla; fill: #000; opacity: 1;">Mar</text><text text-anchor="middle" transform="translate(133,18)" style="font: 10px Karla; fill: #000; opacity: 1;">Apr</text><text text-anchor="middle" transform="translate(170,18)" style="font: 10px Karla; fill: #000; opacity: 1;">May</text><text text-anchor="middle" transform="translate(207,18)" style="font: 10px Karla; fill: #000; opacity: 1;">Jun</text><text text-anchor="middle" transform="translate(244,18)" style="font: 10px Karla; fill: #000; opacity: 1;">Jul</text><text text-anchor="middle" transform="translate(281,18)" style="font: 10px Karla; fill: #000; opacity: 1;">Aug</text><text text-anchor="middle" transform="translate(318,18)" style="font: 10px Karla; fill: #000; opacity: 1;">Sep</text><text text-anchor="middle" transform="translate(355,18)" style="font: 10px Karla; fill: #000; opacity: 1;">Oct</text><text text-anchor="middle" transform="translate(392,18)" style="font: 10px Karla; fill: #000; opacity: 1;">Nov</text><text text-anchor="middle" transform="translate(429,18)" style="font: 10px Karla; fill: #000; opacity: 1;">Dec</text></g><g class="mark-path" style="pointer-events: none;"><path transform="translate(0.5,0.5)" d="M0,0V0H450V0" style="fill: none; stroke: #000; stroke-width: 1;"></path></g><g class="mark-text"></g></g></g><g class="mark-group"><g transform="translate(0,0)"><rect class="background" width="0" height="0" style="pointer-events: none; fill: none;"></rect><g class="mark-rule" style="pointer-events: none;"></g><g class="mark-rule" style="pointer-events: none;"><line transform="translate(-6,100.5)" x2="6" y2="0" style="fill: none; stroke: #000; stroke-width: 1; opacity: 1;"></line><line transform="translate(-6,69.25)" x2="6" y2="0" style="fill: none; stroke: #000; stroke-width: 1; opacity: 1;"></line><line transform="translate(-6,38)" x2="6" y2="0" style="fill: none; stroke: #000; stroke-width: 1; opacity: 1;"></line><line transform="translate(-6,6.75)" x2="6" y2="0" style="fill: none; stroke: #000; stroke-width: 1; opacity: 1;"></line></g><g class="mark-rule" style="pointer-events: none;"></g><g class="mark-text"><text text-anchor="end" transform="translate(-9,103.5)" style="font: 11px Karla; fill: #000; opacity: 1;">0</text><text text-anchor="end" transform="translate(-9,72.25)" style="font: 11px Karla; fill: #000; opacity: 1;">50</text><text text-anchor="end" transform="translate(-9,41)" style="font: 11px Karla; fill: #000; opacity: 1;">100</text><text text-anchor="end" transform="translate(-9,9.75)" style="font: 11px Karla; fill: #000; opacity: 1;">150</text></g><g class="mark-path" style="pointer-events: none;"><path transform="translate(0.5,0.5)" d="M0,0H0V100H0" style="fill: none; stroke: #000; stroke-width: 1;"></path></g><g class="mark-text"><text text-anchor="middle" transform="translate(-37,50) rotate(-90) translate(0,3)" style="font: bold 11px Karla; fill: #000;">Books Read</text></g></g></g><g class="mark-rect"><rect transform="translate(3,92.5)" width="36" height="7.5" style="fill: lightseagreen;"></rect><rect transform="translate(40,96.25)" width="36" height="3.75" style="fill: lightseagreen;"></rect><rect transform="translate(77,90.625)" width="36" height="9.375" style="fill: lightseagreen;"></rect><rect transform="translate(114,91.875)" width="36" height="8.125" style="fill: lightseagreen;"></rect><rect transform="translate(151,95.625)" width="36" height="4.375" style="fill: lightseagreen;"></rect><rect transform="translate(188,95)" width="36" height="5" style="fill: lightseagreen;"></rect><rect transform="translate(225,91.875)" width="36" height="8.125" style="fill: lightseagreen;"></rect><rect transform="translate(262,92.5)" width="36" height="7.5" style="fill: lightseagreen;"></rect><rect transform="translate(299,91.875)" width="36" height="8.125" style="fill: lightseagreen;"></rect><rect transform="translate(336,92.5)" width="36" height="7.5" style="fill: lightseagreen;"></rect><rect transform="translate(373,89.375)" width="36" height="10.625" style="fill: lightseagreen;"></rect><rect transform="translate(410,90)" width="36" height="10" style="fill: lightseagreen;"></rect></g><g class="mark-line"><path d="M3,92.5L40,88.75L77,79.375L114,71.25L151,66.875L188,61.875L225,53.75L262,46.25L299,38.125L336,30.625000000000004L373,19.999999999999996L410,9.999999999999998" style="fill: none; stroke: lightseagreen; stroke-width: 5; stroke-opacity: 0.3;"></path></g><g class="mark-rect"><rect transform="translate(3,36.5)" width="10" height="2" style="fill: crimson;"></rect><rect transform="translate(40,36.5)" width="10" height="2" style="fill: crimson;"></rect><rect transform="translate(77,36.5)" width="10" height="2" style="fill: crimson;"></rect><rect transform="translate(114,36.5)" width="10" height="2" style="fill: crimson;"></rect><rect transform="translate(151,36.5)" width="10" height="2" style="fill: crimson;"></rect><rect transform="translate(188,36.5)" width="10" height="2" style="fill: crimson;"></rect><rect transform="translate(225,36.5)" width="10" height="2" style="fill: crimson;"></rect><rect transform="translate(262,36.5)" width="10" height="2" style="fill: crimson;"></rect><rect transform="translate(299,36.5)" width="10" height="2" style="fill: crimson;"></rect><rect transform="translate(336,36.5)" width="10" height="2" style="fill: crimson;"></rect><rect transform="translate(373,36.5)" width="10" height="2" style="fill: crimson;"></rect><rect transform="translate(410,36.5)" width="10" height="2" style="fill: crimson;"></rect></g><g class="mark-text"><text text-anchor="middle" transform="translate(18.5,0)" style="font: 11px sans-serif; fill: #333; fill-opacity: 0;"></text></g></g></g></g></svg>