<svg class="marks" width="450" height="160" version="1.1" xmlns="http://www.w3.org/2000/svg" xmlns:xlink="http://www.w3.org/1999/xlink"><g transform="translate(30,10)"><g class="mark-group"><g transform="translate(0,0)"><rect class="background" width="400" height="100" style="fill: none;"></rect><g class="mark-group"><g transform="translate(0,100)"><rect class="background" width="0" height="0" style="pointer-events: none; fill: none;"></rect><g class="mark-rule" style="pointer-events: none;"></g><g class="mark-rule" style="pointer-events: none;"><line transform="translate(19,0)" x2="0" y2="6" style="fill: none; stroke: #000; stroke-width: 1; opacity: 1;"></line><line transform="translate(52,0)" x2="0" y2="6" style="fill: none; stroke: #000; stroke-width: 1; opacity: 1;"></line><line transform="translate(85,0)" x2="0" y2="6" style="fill: none; stroke: #000; stroke-width: 1; opacity: 1;"></line><line transform="translate(118,0)" x2="0" y2="6" style="fill: none; stroke: #000; stroke-width: 1; opacity: 1;"></line><line transform="translate(151,0)" x2="0" y2="6" style="fill: none; stroke: #000; stroke-width: 1; opacity: 1;"></line><line transform="translate(184,0)" x2="0" y2="6" style="fill: none; stroke: #000; stroke-width: 1; opacity: 1;"></line><line transform="translate(217,0)" x2="0" y2="6" style="fill: none; stroke: #000; stroke-width: 1; opacity: 1;"></line><line transform="translate(250,0)" x2="0" y2="6" style="fill: none; stroke: #000; stroke-width: 1; opacity: 1;"></line><line transform="translate(283,0)" x2="0" y2="6" style="fill: none; stroke: #000; stroke-width: 1; opacity: 1;"></line><line transform="translate(316,0)" x2="0" y2="6" style="fill: none; stroke: #000; stroke-width: 1; opacity: 1;"></line><line transform="translate(349,0)" x2="0" y2="6" style="fill: none; stroke: #000; stroke-width: 1; opacity: 1;"></line><line transform="translate(382,0)" x2="0" y2="6" style="fill: none; stroke: #000; stroke-width: 1; opacity: 1;"></line></g><g class="mark-rule" style="pointer-events: none;"></g><g class="mark-text"><text text-anchor="middle" transform="translate(19,19)" style="font: 11px Karla; fill: #000; opacity: 1;">Jan </text><text text-anchor="middle" transform="translate(52,19)" style="font: 11px Karla; fill: #000; opacity: 1;">Feb </text><text text-anchor="middle" transform="translate(85,19)" style="font: 11px Karla; fill: #000; opacity: 1;">Mar </text><text text-anchor="middle" transform="translate(118,19)" style="font: 11px Karla; fill: #000; opacity: 1;">Apr </text><text text-anchor="middle" transform="translate(151,19)" style="font: 11px Karla; fill: #000; opacity: 1;">May </text><text text-anchor="middle" transform="translate(184,19)" style="font: 11px Karla; fill: #000; opacity: 1;">Jun </text><text text-anchor="middle" transform="translate(217,19)" style="font: 11px Karla; fill: #000; opacity: 1;">Jul </text><text text-anchor="middle" transform="translate(250,19)" style="font: 11px Karla; fill: #000; opacity: 1;">Aug </text><text text-anchor="middle" transform="translate(283,19)" style="font: 11px Karla; fill: #000; opacity: 1;">Sep </text><text text-anchor="middle" transform="translate(316,19)" style="font: 11px Karla; fill: #000; opacity: 1;">Oct </text><text text-anchor="middle" transform="translate(349,19)" style="font: 11px Karla; fill: #000; opacity: 1;">Nov </text><text text-anchor="middle" transform="translate(382,19)" style="font: 11px Karla; fill: #000; opacity: 1;">Dec </text></g><g class="mark-path" style="pointer-events: none;"><path transform="translate(0.5,0.5)" d="M0,0V0H400V0" style="fill: none; stroke: #000; stroke-width: 1;"></path></g><g class="mark-text"></g></g></g><g class="mark-group"><g transform="translate(0,0)"><rect class="background" width="0" height="0" style="pointer-events: none; fill: none;"></rect><g class="mark-rule" style="pointer-events: none;"></g><g class="mark-rule" style="pointer-events: none;"><line transform="translate(-6,100.5)" x2="6" y2="0" style="fill: none; stroke: #000; stroke-width: 1; opacity: 1;"></line><line transform="translate(-6,88)" x2="6" y2="0" style="fill: none; stroke: #000; stroke-width: 1; opacity: 1;"></line><line transform="translate(-6,75.5)" x2="6" y2="0" style="fill: none; stroke: #000; stroke-width: 1; opacity: 1;"></line><line transform="translate(-6,63)" x2="6" y2="0" style="fill: none; stroke: #000; stroke-width: 1; opacity: 1;"></line><line transform="translate(-6,50.5)" x2="6" y2="0" style="fill: none; stroke: #000; stroke-width: 1; opacity: 1;"></line><line transform="translate(-6,38)" x2="6" y2="0" style="fill: none; stroke: #000; stroke-width: 1; opacity: 1;"></line><line transform="translate(-6,25.5)" x2="6" y2="0" style="fill: none; stroke: #000; stroke-width: 1; opacity: 1;"></line><line transform="translate(-6,13)" x2="6" y2="0" style="fill: none; stroke: #000; stroke-width: 1; opacity: 1;"></line><line transform="translate(-6,0.5)" x2="6" y2="0" style="fill: none; stroke: #000; stroke-width: 1; opacity: 1;"></line></g><g class="mark-rule" style="pointer-events: none;"></g><g class="mark-text"><text text-anchor="end" transform="translate(-9,103.5)" style="font: 11px Karla; fill: #000; opacity: 1;">0</text><text text-anchor="end" transform="translate(-9,91)" style="font: 11px Karla; fill: #000; opacity: 1;">2</text><text text-anchor="end" transform="translate(-9,78.5)" style="font: 11px Karla; fill: #000; opacity: 1;">4</text><text text-anchor="end" transform="translate(-9,66)" style="font: 11px Karla; fill: #000; opacity: 1;">6</text><text text-anchor="end" transform="translate(-9,53.5)" style="font: 11px Karla; fill: #000; opacity: 1;">8</text><text text-anchor="end" transform="translate(-9,41)" style="font: 11px Karla; fill: #000; opacity: 1;">10</text><text text-anchor="end" transform="translate(-9,28.5)" style="font: 11px Karla; fill: #000; opacity: 1;">12</text><text text-anchor="end" transform="translate(-9,16)" style="font: 11px Karla; fill: #000; opacity: 1;">14</text><text text-anchor="end" transform="translate(-9,3.5)" style="font: 11px Karla; fill: #000; opacity: 1;">16</text></g><g class="mark-path" style="pointer-events: none;"><path transform="translate(0.5,0.5)" d="M-6,0H0V100H-6" style="fill: none; stroke: #000; stroke-width: 1;"></path></g><g class="mark-text"></g></g></g><g class="mark-group"><g transform="translate(0,0)"><rect class="background" width="0" height="0" style="fill: none;"></rect><g class="mark-line"><path d="M2,100L35,100L68,100L101,93.75L134,100L167,100L200,100L233,100L266,75L299,93.75L332,56.25L365,81.25" style="fill: none; stroke: #8FB220; stroke-width: 2;"></path></g><g class="mark-text"><text text-anchor="start" transform="translate(369,84.25)" style="font: 11px Karla; fill: #8FB220;">physical</text></g></g><g transform="translate(0,0)"><rect class="background" width="0" height="0" style="fill: none;"></rect><g class="mark-line"><path d="M2,25L35,62.5L68,6.25L101,25L134,56.25L167,50L200,18.75L233,25L266,43.75L299,37.5L332,75L365,37.5" style="fill: none; stroke: #20b2aa; stroke-width: 2;"></path></g><g class="mark-text"><text text-anchor="start" transform="translate(369,40.5)" style="font: 11px Karla; fill: #20b2aa;">electronic</text></g></g><g transform="translate(0,0)"><rect class="background" width="0" height="0" style="fill: none;"></rect><g class="mark-line"><path d="M2,100L35,100L68,100L101,100L134,100L167,100L200,100L233,100L266,100L299,93.75L332,62.5L365,75" style="fill: none; stroke: crimson; stroke-width: 2;"></path></g><g class="mark-text"><text text-anchor="start" transform="translate(369,78)" style="font: 11px Karla; fill: crimson;">audio</text></g></g></g></g></g></g></svg>