<svg class="marks" width="260" height="140" version="1.1" xmlns="http://www.w3.org/2000/svg" xmlns:xlink="http://www.w3.org/1999/xlink"><g transform="translate(50,10)"><g class="mark-group"><g transform="translate(0,0)"><rect class="background" width="200" height="100" style="fill: none;"></rect><g class="mark-rect"><rect transform="translate(1,84.1846153846154)" width="17" height="15.815384615384602" style="fill: lightseagreen;"></rect><rect transform="translate(19,89.23076923076923)" width="17" height="10.769230769230774" style="fill: lightseagreen;"></rect><rect transform="translate(37,69.15384615384616)" width="17" height="30.84615384615384" style="fill: lightseagreen;"></rect><rect transform="translate(55,82.21538461538461)" width="17" height="17.784615384615392" style="fill: lightseagreen;"></rect><rect transform="translate(73,64.75384615384615)" width="17" height="35.246153846153845" style="fill: lightseagreen;"></rect><rect transform="translate(91,46.092307692307685)" width="17" height="53.907692307692315" style="fill: lightseagreen;"></rect><rect transform="translate(109,6.4615384615384635)" width="17" height="93.53846153846153" style="fill: lightseagreen;"></rect><rect transform="translate(127,13.95384615384615)" width="17" height="86.04615384615386" style="fill: lightseagreen;"></rect><rect transform="translate(145,74.92307692307692)" width="17" height="25.07692307692308" style="fill: lightseagreen;"></rect><rect transform="translate(163,53.93846153846154)" width="17" height="46.06153846153846" style="fill: lightseagreen;"></rect><rect transform="translate(181,38.12307692307692)" width="17" height="61.87692307692308" style="fill: lightseagreen;"></rect></g><g class="mark-text"><text text-anchor="middle" transform="translate(9,0)" style="font: 11px sans-serif; fill: #333; fill-opacity: 0;"></text></g><g class="mark-group"><g transform="translate(0,100)"><rect class="background" width="0" height="0" style="pointer-events: none; fill: none;"></rect><g class="mark-rule" style="pointer-events: none;"></g><g class="mark-rule" style="pointer-events: none;"><line transform="translate(10.5,0)" x2="0" y2="6" style="fill: none; stroke: #000; stroke-width: 1; opacity: 1;"></line><line transform="translate(28.5,0)" x2="0" y2="6" style="fill: none; stroke: #000; stroke-width: 1; opacity: 1;"></line><line transform="translate(46.5,0)" x2="0" y2="6" style="fill: none; stroke: #000; stroke-width: 1; opacity: 1;"></line><line transform="translate(64.5,0)" x2="0" y2="6" style="fill: none; stroke: #000; stroke-width: 1; opacity: 1;"></line><line transform="translate(82.5,0)" x2="0" y2="6" style="fill: none; stroke: #000; stroke-width: 1; opacity: 1;"></line><line transform="translate(100.5,0)" x2="0" y2="6" style="fill: none; stroke: #000; stroke-width: 1; opacity: 1;"></line><line transform="translate(118.5,0)" x2="0" y2="6" style="fill: none; stroke: #000; stroke-width: 1; opacity: 1;"></line><line transform="translate(136.5,0)" x2="0" y2="6" style="fill: none; stroke: #000; stroke-width: 1; opacity: 1;"></line><line transform="translate(154.5,0)" x2="0" y2="6" style="fill: none; stroke: #000; stroke-width: 1; opacity: 1;"></line><line transform="translate(172.5,0)" x2="0" y2="6" style="fill: none; stroke: #000; stroke-width: 1; opacity: 1;"></line><line transform="translate(190.5,0)" x2="0" y2="6" style="fill: none; stroke: #000; stroke-width: 1; opacity: 1;"></line></g><g class="mark-rule" style="pointer-events: none;"></g><g class="mark-text"><text text-anchor="middle" transform="translate(10.5,18)" style="font: 10px Karla; fill: #000; opacity: 1;">Jan</text><text text-anchor="middle" transform="translate(28.5,18)" style="font: 10px Karla; fill: #000; opacity: 1;">Mar</text><text text-anchor="middle" transform="translate(46.5,18)" style="font: 10px Karla; fill: #000; opacity: 1;">Apr</text><text text-anchor="middle" transform="translate(64.5,18)" style="font: 10px Karla; fill: #000; opacity: 1;">May</text><text text-anchor="middle" transform="translate(82.5,18)" style="font: 10px Karla; fill: #000; opacity: 1;">Jun</text><text text-anchor="middle" transform="translate(100.5,18)" style="font: 10px Karla; fill: #000; opacity: 1;">Jul</text><text text-anchor="middle" transform="translate(118.5,18)" style="font: 10px Karla; fill: #000; opacity: 1;">Aug</text><text text-anchor="middle" transform="translate(136.5,18)" style="font: 10px Karla; fill: #000; opacity: 1;">Sep</text><text text-anchor="middle" transform="translate(154.5,18)" style="font: 10px Karla; fill: #000; opacity: 1;">Oct</text><text text-anchor="middle" transform="translate(172.5,18)" style="font: 10px Karla; fill: #000; opacity: 1;">Nov</text><text text-anchor="middle" transform="translate(190.5,18)" style="font: 10px Karla; fill: #000; opacity: 1;">Dec</text></g><g class="mark-path" style="pointer-events: none;"><path transform="translate(0.5,0.5)" d="M0,0V0H200V0" style="fill: none; stroke: #000; stroke-width: 1;"></path></g><g class="mark-text"></g></g></g><g class="mark-group"><g transform="translate(0,0)"><rect class="background" width="0" height="0" style="pointer-events: none; fill: none;"></rect><g class="mark-rule" style="pointer-events: none;"></g><g class="mark-rule" style="pointer-events: none;"><line transform="translate(-6,100.5)" x2="6" y2="0" style="fill: none; stroke: #000; stroke-width: 1; opacity: 1;"></line><line transform="translate(-6,69.73076923076923)" x2="6" y2="0" style="fill: none; stroke: #000; stroke-width: 1; opacity: 1;"></line><line transform="translate(-6,38.96153846153846)" x2="6" y2="0" style="fill: none; stroke: #000; stroke-width: 1; opacity: 1;"></line><line transform="translate(-6,8.192307692307686)" x2="6" y2="0" style="fill: none; stroke: #000; stroke-width: 1; opacity: 1;"></line></g><g class="mark-rule" style="pointer-events: none;"></g><g class="mark-text"><text text-anchor="end" transform="translate(-9,103.5)" style="font: 11px Karla; fill: #000; opacity: 1;">0k</text><text text-anchor="end" transform="translate(-9,72.73076923076923)" style="font: 11px Karla; fill: #000; opacity: 1;">2k</text><text text-anchor="end" transform="translate(-9,41.96153846153846)" style="font: 11px Karla; fill: #000; opacity: 1;">4k</text><text text-anchor="end" transform="translate(-9,11.192307692307686)" style="font: 11px Karla; fill: #000; opacity: 1;">6k</text></g><g class="mark-path" style="pointer-events: none;"><path transform="translate(0.5,0.5)" d="M0,0H0V100H0" style="fill: none; stroke: #000; stroke-width: 1;"></path></g><g class="mark-text"><text text-anchor="middle" transform="translate(-33,50) rotate(-90) translate(0,3)" style="font: bold 11px Karla; fill: #000;">Pages Read</text></g></g></g></g></g></g></svg>