<svg class="marks" width="540" height="140" version="1.1" xmlns="http://www.w3.org/2000/svg" xmlns:xlink="http://www.w3.org/1999/xlink"><g transform="translate(50,10)"><g class="mark-group"><g transform="translate(0,0)"><rect class="background" width="450" height="100" style="fill: none;"></rect><g class="mark-rect"><rect transform="translate(5,98.18181818181819)" width="39" height="1.818181818181813" style="fill: lightseagreen;"></rect><rect transform="translate(45,98.18181818181819)" width="39" height="1.818181818181813" style="fill: lightseagreen;"></rect><rect transform="translate(85,91.81818181818183)" width="39" height="8.181818181818173" style="fill: lightseagreen;"></rect><rect transform="translate(125,95.45454545454545)" width="39" height="4.545454545454547" style="fill: lightseagreen;"></rect><rect transform="translate(165,91.81818181818183)" width="39" height="8.181818181818173" style="fill: lightseagreen;"></rect><rect transform="translate(205,88.18181818181819)" width="39" height="11.818181818181813" style="fill: lightseagreen;"></rect><rect transform="translate(245,81.81818181818181)" width="39" height="18.181818181818187" style="fill: lightseagreen;"></rect><rect transform="translate(285,80.9090909090909)" width="39" height="19.090909090909093" style="fill: lightseagreen;"></rect><rect transform="translate(325,94.54545454545455)" width="39" height="5.454545454545453" style="fill: lightseagreen;"></rect><rect transform="translate(365,90.9090909090909)" width="39" height="9.090909090909093" style="fill: lightseagreen;"></rect><rect transform="translate(405,89.0909090909091)" width="39" height="10.909090909090907" style="fill: lightseagreen;"></rect></g><g class="mark-line"><path d="M5,98.18181818181819L45,96.36363636363636L85,88.18181818181819L125,83.63636363636364L165,75.45454545454545L205,63.63636363636363L245,45.45454545454546L285,26.363636363636367L325,20.90909090909091L365,11.818181818181817L405,0.9090909090909038" style="fill: none; stroke: lightseagreen; stroke-width: 5; stroke-opacity: 0.3;"></path></g><g class="mark-rect"><rect transform="translate(5,8.090909090909093)" width="10" height="2" style="fill: orangered;"></rect><rect transform="translate(45,8.090909090909093)" width="10" height="2" style="fill: orangered;"></rect><rect transform="translate(85,8.090909090909093)" width="10" height="2" style="fill: orangered;"></rect><rect transform="translate(125,8.090909090909093)" width="10" height="2" style="fill: orangered;"></rect><rect transform="translate(165,8.090909090909093)" width="10" height="2" style="fill: orangered;"></rect><rect transform="translate(205,8.090909090909093)" width="10" height="2" style="fill: orangered;"></rect><rect transform="translate(245,8.090909090909093)" width="10" height="2" style="fill: orangered;"></rect><rect transform="translate(285,8.090909090909093)" width="10" height="2" style="fill: orangered;"></rect><rect transform="translate(325,8.090909090909093)" width="10" height="2" style="fill: orangered;"></rect><rect transform="translate(365,8.090909090909093)" width="10" height="2" style="fill: orangered;"></rect><rect transform="translate(405,8.090909090909093)" width="10" height="2" style="fill: orangered;"></rect></g><g class="mark-text"><text text-anchor="middle" transform="translate(20,0)" style="font: 11px sans-serif; fill: #333; fill-opacity: 0;"></text></g><g class="mark-group"><g transform="translate(0,100)"><rect class="background" width="0" height="0" style="pointer-events: none; fill: none;"></rect><g class="mark-rule" style="pointer-events: none;"></g><g class="mark-rule" style="pointer-events: none;"><line transform="translate(25.5,0)" x2="0" y2="6" style="fill: none; stroke: #000; stroke-width: 1; opacity: 1;"></line><line transform="translate(65.5,0)" x2="0" y2="6" style="fill: none; stroke: #000; stroke-width: 1; opacity: 1;"></line><line transform="translate(105.5,0)" x2="0" y2="6" style="fill: none; stroke: #000; stroke-width: 1; opacity: 1;"></line><line transform="translate(145.5,0)" x2="0" y2="6" style="fill: none; stroke: #000; stroke-width: 1; opacity: 1;"></line><line transform="translate(185.5,0)" x2="0" y2="6" style="fill: none; stroke: #000; stroke-width: 1; opacity: 1;"></line><line transform="translate(225.5,0)" x2="0" y2="6" style="fill: none; stroke: #000; stroke-width: 1; opacity: 1;"></line><line transform="translate(265.5,0)" x2="0" y2="6" style="fill: none; stroke: #000; stroke-width: 1; opacity: 1;"></line><line transform="translate(305.5,0)" x2="0" y2="6" style="fill: none; stroke: #000; stroke-width: 1; opacity: 1;"></line><line transform="translate(345.5,0)" x2="0" y2="6" style="fill: none; stroke: #000; stroke-width: 1; opacity: 1;"></line><line transform="translate(385.5,0)" x2="0" y2="6" style="fill: none; stroke: #000; stroke-width: 1; opacity: 1;"></line><line transform="translate(425.5,0)" x2="0" y2="6" style="fill: none; stroke: #000; stroke-width: 1; opacity: 1;"></line></g><g class="mark-rule" style="pointer-events: none;"></g><g class="mark-text"><text text-anchor="middle" transform="translate(25.5,18)" style="font: 10px Karla; fill: #000; opacity: 1;">Jan</text><text text-anchor="middle" transform="translate(65.5,18)" style="font: 10px Karla; fill: #000; opacity: 1;">Mar</text><text text-anchor="middle" transform="translate(105.5,18)" style="font: 10px Karla; fill: #000; opacity: 1;">Apr</text><text text-anchor="middle" transform="translate(145.5,18)" style="font: 10px Karla; fill: #000; opacity: 1;">May</text><text text-anchor="middle" transform="translate(185.5,18)" style="font: 10px Karla; fill: #000; opacity: 1;">Jun</text><text text-anchor="middle" transform="translate(225.5,18)" style="font: 10px Karla; fill: #000; opacity: 1;">Jul</text><text text-anchor="middle" transform="translate(265.5,18)" style="font: 10px Karla; fill: #000; opacity: 1;">Aug</text><text text-anchor="middle" transform="translate(305.5,18)" style="font: 10px Karla; fill: #000; opacity: 1;">Sep</text><text text-anchor="middle" transform="translate(345.5,18)" style="font: 10px Karla; fill: #000; opacity: 1;">Oct</text><text text-anchor="middle" transform="translate(385.5,18)" style="font: 10px Karla; fill: #000; opacity: 1;">Nov</text><text text-anchor="middle" transform="translate(425.5,18)" style="font: 10px Karla; fill: #000; opacity: 1;">Dec</text></g><g class="mark-path" style="pointer-events: none;"><path transform="translate(0.5,0.5)" d="M0,0V0H450V0" style="fill: none; stroke: #000; stroke-width: 1;"></path></g><g class="mark-text"></g></g></g><g class="mark-group"><g transform="translate(0,0)"><rect class="background" width="0" height="0" style="pointer-events: none; fill: none;"></rect><g class="mark-rule" style="pointer-events: none;"></g><g class="mark-rule" style="pointer-events: none;"><line transform="translate(-6,100.5)" x2="6" y2="0" style="fill: none; stroke: #000; stroke-width: 1; opacity: 1;"></line><line transform="translate(-6,82.31818181818181)" x2="6" y2="0" style="fill: none; stroke: #000; stroke-width: 1; opacity: 1;"></line><line transform="translate(-6,64.13636363636363)" x2="6" y2="0" style="fill: none; stroke: #000; stroke-width: 1; opacity: 1;"></line><line transform="translate(-6,45.95454545454546)" x2="6" y2="0" style="fill: none; stroke: #000; stroke-width: 1; opacity: 1;"></line><line transform="translate(-6,27.77272727272727)" x2="6" y2="0" style="fill: none; stroke: #000; stroke-width: 1; opacity: 1;"></line><line transform="translate(-6,9.590909090909093)" x2="6" y2="0" style="fill: none; stroke: #000; stroke-width: 1; opacity: 1;"></line></g><g class="mark-rule" style="pointer-events: none;"></g><g class="mark-text"><text text-anchor="end" transform="translate(-9,103.5)" style="font: 11px Karla; fill: #000; opacity: 1;">0</text><text text-anchor="end" transform="translate(-9,85.31818181818181)" style="font: 11px Karla; fill: #000; opacity: 1;">20</text><text text-anchor="end" transform="translate(-9,67.13636363636363)" style="font: 11px Karla; fill: #000; opacity: 1;">40</text><text text-anchor="end" transform="translate(-9,48.95454545454546)" style="font: 11px Karla; fill: #000; opacity: 1;">60</text><text text-anchor="end" transform="translate(-9,30.77272727272727)" style="font: 11px Karla; fill: #000; opacity: 1;">80</text><text text-anchor="end" transform="translate(-9,12.590909090909093)" style="font: 11px Karla; fill: #000; opacity: 1;">100</text></g><g class="mark-path" style="pointer-events: none;"><path transform="translate(0.5,0.5)" d="M0,0H0V100H0" style="fill: none; stroke: #000; stroke-width: 1;"></path></g><g class="mark-text"><text text-anchor="middle" transform="translate(-37,50) rotate(-90) translate(0,3)" style="font: bold 11px Karla; fill: #000;">Books Read</text></g></g></g></g></g></g></svg>