<svg class="marks" width="520" height="145" version="1.1" xmlns="http://www.w3.org/2000/svg" xmlns:xlink="http://www.w3.org/1999/xlink"><g transform="translate(75,10)"><g class="mark-group"><g transform="translate(0,0)"><rect class="background" width="425" height="100" style="fill: none;"></rect><g class="mark-rect"><rect transform="translate(0,98.02285714285715)" width="110" height="1.9771428571428515" style="fill: LightSeaGreen;"></rect><rect transform="translate(19,97.06285714285714)" width="110" height="2.9371428571428595" style="fill: LightSeaGreen;"></rect><rect transform="translate(95,95.78285714285715)" width="110" height="4.217142857142846" style="fill: LightSeaGreen;"></rect><rect transform="translate(96,95.06285714285714)" width="110" height="4.9371428571428595" style="fill: LightSeaGreen;"></rect><rect transform="translate(103,94.92)" width="110" height="5.079999999999998" style="fill: LightSeaGreen;"></rect><rect transform="translate(104,94.80571428571429)" width="110" height="5.194285714285712" style="fill: LightSeaGreen;"></rect><rect transform="translate(110,93.92285714285714)" width="110" height="6.07714285714286" style="fill: LightSeaGreen;"></rect><rect transform="translate(111,92.51142857142857)" width="110" height="7.488571428571433" style="fill: LightSeaGreen;"></rect><rect transform="translate(111,93.18285714285715)" width="110" height="6.817142857142855" style="fill: LightSeaGreen;"></rect><rect transform="translate(112,91.68857142857144)" width="110" height="8.311428571428564" style="fill: LightSeaGreen;"></rect><rect transform="translate(112,90.80857142857143)" width="110" height="9.191428571428574" style="fill: LightSeaGreen;"></rect><rect transform="translate(127,90.12285714285714)" width="110" height="9.877142857142857" style="fill: LightSeaGreen;"></rect><rect transform="translate(135,89.33428571428571)" width="110" height="10.665714285714287" style="fill: LightSeaGreen;"></rect><rect transform="translate(148,89.18857142857142)" width="110" height="10.811428571428578" style="fill: LightSeaGreen;"></rect><rect transform="translate(149,88.59714285714287)" width="110" height="11.40285714285713" style="fill: LightSeaGreen;"></rect><rect transform="translate(153,87.72857142857143)" width="110" height="12.271428571428572" style="fill: LightSeaGreen;"></rect><rect transform="translate(162,86.80857142857144)" width="110" height="13.19142857142856" style="fill: LightSeaGreen;"></rect><rect transform="translate(173,86.03142857142856)" width="110" height="13.968571428571437" style="fill: LightSeaGreen;"></rect><rect transform="translate(178,84.53142857142856)" width="110" height="15.468571428571437" style="fill: LightSeaGreen;"></rect><rect transform="translate(178,85.46285714285715)" width="110" height="14.537142857142854" style="fill: LightSeaGreen;"></rect><rect transform="translate(179,84.46571428571428)" width="110" height="15.534285714285716" style="fill: LightSeaGreen;"></rect><rect transform="translate(181,84.00857142857143)" width="110" height="15.991428571428571" style="fill: LightSeaGreen;"></rect><rect transform="translate(181,83.78)" width="110" height="16.22" style="fill: LightSeaGreen;"></rect><rect transform="translate(182,81.99714285714286)" width="110" height="18.00285714285714" style="fill: LightSeaGreen;"></rect><rect transform="translate(183,81.16285714285713)" width="110" height="18.837142857142865" style="fill: LightSeaGreen;"></rect><rect transform="translate(207,80.49142857142857)" width="110" height="19.50857142857143" style="fill: LightSeaGreen;"></rect><rect transform="translate(208,79.48571428571428)" width="110" height="20.51428571428572" style="fill: LightSeaGreen;"></rect><rect transform="translate(218,78.29714285714286)" width="110" height="21.70285714285714" style="fill: LightSeaGreen;"></rect><rect transform="translate(220,77.92285714285714)" width="110" height="22.07714285714286" style="fill: LightSeaGreen;"></rect><rect transform="translate(223,77.13142857142857)" width="110" height="22.86857142857143" style="fill: LightSeaGreen;"></rect><rect transform="translate(230,76.86857142857143)" width="110" height="23.13142857142857" style="fill: LightSeaGreen;"></rect><rect transform="translate(232,75.9542857142857)" width="110" height="24.045714285714297" style="fill: LightSeaGreen;"></rect><rect transform="translate(233,74.35714285714286)" width="110" height="25.64285714285714" style="fill: LightSeaGreen;"></rect><rect transform="translate(238,73.59142857142858)" width="110" height="26.40857142857142" style="fill: LightSeaGreen;"></rect><rect transform="translate(239,72.92285714285714)" width="110" height="27.07714285714286" style="fill: LightSeaGreen;"></rect><rect transform="translate(241,72.30285714285714)" width="110" height="27.697142857142865" style="fill: LightSeaGreen;"></rect><rect transform="translate(243,71.43142857142857)" width="110" height="28.56857142857143" style="fill: LightSeaGreen;"></rect><rect transform="translate(243,70.60857142857142)" width="110" height="29.391428571428577" style="fill: LightSeaGreen;"></rect><rect transform="translate(243,70.33714285714285)" width="110" height="29.66285714285715" style="fill: LightSeaGreen;"></rect><rect transform="translate(245,69.47428571428571)" width="110" height="30.525714285714287" style="fill: LightSeaGreen;"></rect><rect transform="translate(247,68.55142857142857)" width="110" height="31.448571428571427" style="fill: LightSeaGreen;"></rect><rect transform="translate(249,67.17142857142858)" width="110" height="32.82857142857142" style="fill: LightSeaGreen;"></rect><rect transform="translate(250,66.34857142857142)" width="110" height="33.65142857142858" style="fill: LightSeaGreen;"></rect><rect transform="translate(254,64.64857142857143)" width="110" height="35.35142857142857" style="fill: LightSeaGreen;"></rect><rect transform="translate(254,65.37714285714286)" width="110" height="34.62285714285714" style="fill: LightSeaGreen;"></rect><rect transform="translate(256,63.96857142857143)" width="110" height="36.03142857142857" style="fill: LightSeaGreen;"></rect><rect transform="translate(257,63.23714285714286)" width="110" height="36.76285714285714" style="fill: LightSeaGreen;"></rect><rect transform="translate(262,61.74857142857143)" width="110" height="38.25142857142857" style="fill: LightSeaGreen;"></rect><rect transform="translate(263,60.94857142857143)" width="110" height="39.05142857142857" style="fill: LightSeaGreen;"></rect><rect transform="translate(265,59.36571428571429)" width="110" height="40.63428571428571" style="fill: LightSeaGreen;"></rect><rect transform="translate(265,60.308571428571426)" width="110" height="39.691428571428574" style="fill: LightSeaGreen;"></rect><rect transform="translate(266,58.80000000000001)" width="110" height="41.19999999999999" style="fill: LightSeaGreen;"></rect><rect transform="translate(266,57.885714285714286)" width="110" height="42.114285714285714" style="fill: LightSeaGreen;"></rect><rect transform="translate(277,56.42285714285714)" width="110" height="43.57714285714286" style="fill: LightSeaGreen;"></rect><rect transform="translate(281,55.497142857142855)" width="110" height="44.502857142857145" style="fill: LightSeaGreen;"></rect><rect transform="translate(282,55.04285714285715)" width="110" height="44.95714285714285" style="fill: LightSeaGreen;"></rect><rect transform="translate(282,54.19142857142858)" width="110" height="45.80857142857142" style="fill: LightSeaGreen;"></rect><rect transform="translate(282,53.23428571428571)" width="110" height="46.76571428571429" style="fill: LightSeaGreen;"></rect><rect transform="translate(283,52.10285714285714)" width="110" height="47.89714285714286" style="fill: LightSeaGreen;"></rect><rect transform="translate(283,52.78857142857143)" width="110" height="47.21142857142857" style="fill: LightSeaGreen;"></rect><rect transform="translate(284,50.877142857142864)" width="110" height="49.122857142857136" style="fill: LightSeaGreen;"></rect><rect transform="translate(284,51.634285714285724)" width="110" height="48.365714285714276" style="fill: LightSeaGreen;"></rect><rect transform="translate(284,51.26857142857143)" width="110" height="48.73142857142857" style="fill: LightSeaGreen;"></rect><rect transform="translate(285,50.1)" width="110" height="49.9" style="fill: LightSeaGreen;"></rect><rect transform="translate(286,49.208571428571425)" width="110" height="50.791428571428575" style="fill: LightSeaGreen;"></rect><rect transform="translate(288,48.294285714285714)" width="110" height="51.705714285714286" style="fill: LightSeaGreen;"></rect><rect transform="translate(289,47.511428571428574)" width="110" height="52.488571428571426" style="fill: LightSeaGreen;"></rect><rect transform="translate(290,46.76571428571429)" width="110" height="53.23428571428571" style="fill: LightSeaGreen;"></rect><rect transform="translate(294,45.80571428571428)" width="110" height="54.19428571428572" style="fill: LightSeaGreen;"></rect><rect transform="translate(295,44.83714285714285)" width="110" height="55.16285714285715" style="fill: LightSeaGreen;"></rect><rect transform="translate(297,43.97428571428571)" width="110" height="56.02571428571429" style="fill: LightSeaGreen;"></rect><rect transform="translate(299,43.04857142857143)" width="110" height="56.95142857142857" style="fill: LightSeaGreen;"></rect><rect transform="translate(301,42.50000000000001)" width="110" height="57.49999999999999" style="fill: LightSeaGreen;"></rect><rect transform="translate(307,41.81428571428572)" width="110" height="58.18571428571428" style="fill: LightSeaGreen;"></rect><rect transform="translate(307,40.900000000000006)" width="110" height="59.099999999999994" style="fill: LightSeaGreen;"></rect><rect transform="translate(310,40.50857142857143)" width="110" height="59.49142857142857" style="fill: LightSeaGreen;"></rect><rect transform="translate(310,39.57142857142857)" width="110" height="60.42857142857143" style="fill: LightSeaGreen;"></rect><rect transform="translate(314,38.88571428571429)" width="110" height="61.11428571428571" style="fill: LightSeaGreen;"></rect><rect transform="translate(315,37.91428571428571)" width="110" height="62.08571428571429" style="fill: LightSeaGreen;"></rect><rect transform="translate(316,37.04571428571428)" width="110" height="62.95428571428572" style="fill: LightSeaGreen;"></rect><rect transform="translate(317,36.12285714285714)" width="110" height="63.87714285714286" style="fill: LightSeaGreen;"></rect><rect transform="translate(327,35.24285714285714)" width="110" height="64.75714285714287" style="fill: LightSeaGreen;"></rect><rect transform="translate(330,34.36)" width="110" height="65.64" style="fill: LightSeaGreen;"></rect><rect transform="translate(335,33.44571428571429)" width="110" height="66.55428571428571" style="fill: LightSeaGreen;"></rect><rect transform="translate(342,32.56)" width="110" height="67.44" style="fill: LightSeaGreen;"></rect><rect transform="translate(343,31.785714285714285)" width="110" height="68.21428571428572" style="fill: LightSeaGreen;"></rect><rect transform="translate(344,31.465714285714284)" width="110" height="68.53428571428572" style="fill: LightSeaGreen;"></rect><rect transform="translate(356,31.031428571428577)" width="110" height="68.96857142857142" style="fill: LightSeaGreen;"></rect><rect transform="translate(358,30.197142857142858)" width="110" height="69.80285714285714" style="fill: LightSeaGreen;"></rect><rect transform="translate(358,29.23714285714286)" width="110" height="70.76285714285714" style="fill: LightSeaGreen;"></rect><rect transform="translate(362,28.825714285714287)" width="110" height="71.17428571428572" style="fill: LightSeaGreen;"></rect><rect transform="translate(363,27.545714285714283)" width="110" height="72.45428571428572" style="fill: LightSeaGreen;"></rect><rect transform="translate(375,26.742857142857147)" width="110" height="73.25714285714285" style="fill: LightSeaGreen;"></rect><rect transform="translate(379,25.58571428571429)" width="110" height="74.41428571428571" style="fill: LightSeaGreen;"></rect><rect transform="translate(385,24.7)" width="110" height="75.3" style="fill: LightSeaGreen;"></rect><rect transform="translate(387,23.825714285714284)" width="110" height="76.17428571428572" style="fill: LightSeaGreen;"></rect><rect transform="translate(389,22.911428571428573)" width="110" height="77.08857142857143" style="fill: LightSeaGreen;"></rect><rect transform="translate(397,21.951428571428565)" width="110" height="78.04857142857144" style="fill: LightSeaGreen;"></rect><rect transform="translate(397,21.21428571428572)" width="110" height="78.78571428571428" style="fill: LightSeaGreen;"></rect><rect transform="translate(400,19.868571428571425)" width="110" height="80.13142857142857" style="fill: LightSeaGreen;"></rect><rect transform="translate(403,18.67428571428571)" width="110" height="81.3257142857143" style="fill: LightSeaGreen;"></rect><rect transform="translate(406,17.32285714285714)" width="110" height="82.67714285714285" style="fill: LightSeaGreen;"></rect><rect transform="translate(407,16.59142857142857)" width="110" height="83.40857142857143" style="fill: LightSeaGreen;"></rect><rect transform="translate(408,15.32)" width="110" height="84.68" style="fill: LightSeaGreen;"></rect><rect transform="translate(416,14.700000000000003)" width="110" height="85.3" style="fill: LightSeaGreen;"></rect><rect transform="translate(423,13.919999999999998)" width="110" height="86.08" style="fill: LightSeaGreen;"></rect><rect transform="translate(424,12.839999999999996)" width="110" height="87.16" style="fill: LightSeaGreen;"></rect><rect transform="translate(424,12.33428571428571)" width="110" height="87.66571428571429" style="fill: LightSeaGreen;"></rect><rect transform="translate(425,11.419999999999996)" width="110" height="88.58" style="fill: LightSeaGreen;"></rect></g><g class="mark-text"><text text-anchor="end" transform="translate(0,0)" style="font: 11px Karla; fill: #333;"></text></g><g class="mark-group"><g transform="translate(0,0)"><rect class="background" width="0" height="0" style="pointer-events: none; fill: none;"></rect><g class="mark-rule" style="pointer-events: none;"></g><g class="mark-rule" style="pointer-events: none;"><line transform="translate(-6,100.5)" x2="6" y2="0" style="fill: none; stroke: #000; stroke-width: 1; opacity: 1;"></line><line transform="translate(-6,71.92857142857143)" x2="6" y2="0" style="fill: none; stroke: #000; stroke-width: 1; opacity: 1;"></line><line transform="translate(-6,43.35714285714286)" x2="6" y2="0" style="fill: none; stroke: #000; stroke-width: 1; opacity: 1;"></line><line transform="translate(-6,14.78571428571429)" x2="6" y2="0" style="fill: none; stroke: #000; stroke-width: 1; opacity: 1;"></line></g><g class="mark-rule" style="pointer-events: none;"></g><g class="mark-text"><text text-anchor="end" transform="translate(-9,103.5)" style="font: 11px Karla; fill: #000; opacity: 1;">0k</text><text text-anchor="end" transform="translate(-9,74.92857142857143)" style="font: 11px Karla; fill: #000; opacity: 1;">10k</text><text text-anchor="end" transform="translate(-9,46.35714285714286)" style="font: 11px Karla; fill: #000; opacity: 1;">20k</text><text text-anchor="end" transform="translate(-9,17.785714285714292)" style="font: 11px Karla; fill: #000; opacity: 1;">30k</text></g><g class="mark-path" style="pointer-events: none;"><path transform="translate(0.5,0.5)" d="M-6,0H0V100H-6" style="fill: none; stroke: #000; stroke-width: 1;"></path></g><g class="mark-text"><text text-anchor="middle" transform="translate(-40,50) rotate(-90) translate(0,3)" style="font: bold 11px Karla; fill: #000;">Pages Read</text></g></g></g><g class="mark-group"><g transform="translate(0,100)"><rect class="background" width="0" height="0" style="pointer-events: none; fill: none;"></rect><g class="mark-rule" style="pointer-events: none;"></g><g class="mark-rule" style="pointer-events: none;"><line transform="translate(33.5,0)" x2="0" y2="6" style="fill: none; stroke: #000; stroke-width: 1; opacity: 1;"></line><line transform="translate(66.5,0)" x2="0" y2="6" style="fill: none; stroke: #000; stroke-width: 1; opacity: 1;"></line><line transform="translate(103.5,0)" x2="0" y2="6" style="fill: none; stroke: #000; stroke-width: 1; opacity: 1;"></line><line transform="translate(138.5,0)" x2="0" y2="6" style="fill: none; stroke: #000; stroke-width: 1; opacity: 1;"></line><line transform="translate(175.5,0)" x2="0" y2="6" style="fill: none; stroke: #000; stroke-width: 1; opacity: 1;"></line><line transform="translate(211.5,0)" x2="0" y2="6" style="fill: none; stroke: #000; stroke-width: 1; opacity: 1;"></line><line transform="translate(247.5,0)" x2="0" y2="6" style="fill: none; stroke: #000; stroke-width: 1; opacity: 1;"></line><line transform="translate(284.5,0)" x2="0" y2="6" style="fill: none; stroke: #000; stroke-width: 1; opacity: 1;"></line><line transform="translate(320.5,0)" x2="0" y2="6" style="fill: none; stroke: #000; stroke-width: 1; opacity: 1;"></line><line transform="translate(356.5,0)" x2="0" y2="6" style="fill: none; stroke: #000; stroke-width: 1; opacity: 1;"></line><line transform="translate(392.5,0)" x2="0" y2="6" style="fill: none; stroke: #000; stroke-width: 1; opacity: 1;"></line></g><g class="mark-rule" style="pointer-events: none;"></g><g class="mark-text"><text text-anchor="start" transform="translate(33.5,9) rotate(25) translate(3,3)" style="font: 10px Karla; fill: #000; opacity: 1;">February</text><text text-anchor="start" transform="translate(66.5,9) rotate(25) translate(3,3)" style="font: 10px Karla; fill: #000; opacity: 1;">March</text><text text-anchor="start" transform="translate(103.5,9) rotate(25) translate(3,3)" style="font: 10px Karla; fill: #000; opacity: 1;">April</text><text text-anchor="start" transform="translate(138.5,9) rotate(25) translate(3,3)" style="font: 10px Karla; fill: #000; opacity: 1;">May</text><text text-anchor="start" transform="translate(175.5,9) rotate(25) translate(3,3)" style="font: 10px Karla; fill: #000; opacity: 1;">June</text><text text-anchor="start" transform="translate(211.5,9) rotate(25) translate(3,3)" style="font: 10px Karla; fill: #000; opacity: 1;">July</text><text text-anchor="start" transform="translate(247.5,9) rotate(25) translate(3,3)" style="font: 10px Karla; fill: #000; opacity: 1;">August</text><text text-anchor="start" transform="translate(284.5,9) rotate(25) translate(3,3)" style="font: 10px Karla; fill: #000; opacity: 1;">September</text><text text-anchor="start" transform="translate(320.5,9) rotate(25) translate(3,3)" style="font: 10px Karla; fill: #000; opacity: 1;">October</text><text text-anchor="start" transform="translate(356.5,9) rotate(25) translate(3,3)" style="font: 10px Karla; fill: #000; opacity: 1;">November</text><text text-anchor="start" transform="translate(392.5,9) rotate(25) translate(3,3)" style="font: 10px Karla; fill: #000; opacity: 1;">December</text></g><g class="mark-path" style="pointer-events: none;"><path transform="translate(0.5,0.5)" d="M0,0V0H425V0" style="fill: none; stroke: #000; stroke-width: 1;"></path></g><g class="mark-text"></g></g></g></g></g></g></svg>